<svg xmlns="http://www.w3.org/2000/svg" preserveAspectRatio="xMidYMid meet" version="1.1" viewBox="713.00 669.34 1517.69 315.82">
<defs><linearGradient id="brand" gradientUnits="userSpaceOnUse" x1="817.7" y1="691.1" x2="2126.0" y2="963.4"><stop offset="0" stop-color="#FF1F3D"/><stop offset="1" stop-color="#FF6A00"/></linearGradient></defs>
<path d="M 1622.9 692.147 L 1709.24 692.026 L 1662.59 871.176 C 1655.13 899.847 1647.86 929.156 1640.16 957.797 C 1639.32 960.918 1639.08 961.514 1636.93 962.806 L 1568.91 962.795 C 1550.8 916.66 1532.94 870.431 1515.31 824.111 L 1479.18 962.7 L 1396.16 962.942 C 1413.02 945.71 1412.06 936.012 1417.97 913.224 L 1434.36 850.278 L 1458.05 759.962 C 1462.37 743.488 1466.99 726.692 1470.69 710.072 C 1472.49 702.028 1469.33 698.627 1464.86 692.168 L 1544.02 692.071 C 1562.9 732.78 1582.41 782.38 1599.94 824.246 C 1606.6 800.781 1612.54 776.192 1618.8 752.572 C 1622.56 738.344 1628.1 719.656 1630.62 705.552 C 1628.13 699.45 1626.72 697.587 1622.9 692.147 z" fill="url(#brand)" transform="translate(0,0)"></path>
<path d="M 917.242 692.083 L 1111.94 692.077 C 1095.93 715.272 1078.48 738.203 1062.06 761.33 L 932.036 761.337 C 921.348 804.903 909.318 849.411 898.192 892.982 L 969.539 892.858 L 976.425 864.085 C 964.461 844.987 951.651 824.299 938.841 805.913 L 985.5 806.042 L 1065.72 805.958 L 1034.57 924.074 C 1018.29 936.739 1002.96 950.209 986.33 962.82 C 940.342 963.381 893.508 962.976 847.479 962.999 L 817.668 921.779 L 867.395 726.096 L 917.242 692.083 z" fill="url(#brand)" transform="translate(0,0)"></path>
<path d="M 1998.12 692.106 C 2026.87 691.577 2057.25 692.087 2086.16 692.031 L 2107.24 876.838 C 2109.87 899.3 2112.01 925.813 2116.18 948.111 C 2116.56 950.175 2124.12 960.169 2126.02 962.733 L 2036.15 962.904 C 2035.2 952.117 2034.08 941.347 2032.77 930.597 L 1953.25 930.566 L 1930.35 930.514 C 1923.12 941.332 1915.81 952.102 1908.43 962.824 L 1826.59 962.883 C 1847.07 944.352 1856.5 926.048 1871.58 902.877 L 1912.78 839.244 L 2001.12 704.1 L 1998.12 692.106 z" fill="url(#brand)" transform="translate(0,0)"></path>
<path d="M 1126.64 692.155 L 1299.17 692.035 L 1326.89 729.848 C 1317.86 768.597 1306.54 806.764 1297.81 846.155 C 1284.97 851.826 1269.13 861.124 1256.12 867.773 C 1263.94 896.428 1277.69 933.788 1287.09 962.839 L 1207.27 962.891 C 1191.89 927.102 1174.09 886.624 1160.32 850.664 L 1156.12 866.595 C 1147.38 898.207 1139.23 931.013 1130.82 962.828 L 1049.29 962.875 C 1052.35 959.686 1059.4 952.797 1060.68 948.949 C 1065.17 935.413 1068.83 919.21 1072.33 905.408 L 1097.54 806.023 C 1142.89 806.227 1188.25 806.124 1233.6 805.715 C 1237.72 790.954 1241.57 776.118 1245.13 761.213 L 1108.22 761.157 L 1126.64 692.155 z" fill="url(#brand)" transform="translate(0,0)"></path>
<path d="M 1733.59 692.012 L 1963.69 691.992 C 1953.21 715.205 1942.17 738.133 1931.75 761.445 C 1910.77 760.83 1888.09 761.167 1866.98 761.102 L 1829.41 906.767 C 1824.8 925.543 1819.85 944.235 1814.57 962.833 L 1732.22 962.957 C 1737.52 957.305 1742.51 953.248 1744.88 945.725 C 1751.64 924.226 1756.52 902.169 1762.1 880.334 L 1792.57 761.224 L 1715.03 761.13 C 1721.35 738.125 1727.53 715.086 1733.59 692.012 z" fill="url(#brand)" transform="translate(0,0)"></path>
<path d="M 1359.93 692.276 C 1385.78 691.123 1418.98 692.094 1445.39 692.094 C 1439.17 711.518 1432.01 743.234 1426.73 763.673 L 1392.72 895.194 C 1390.07 905.705 1378.44 955.999 1374.71 962.85 L 1293.24 962.592 C 1301.16 954.716 1303.76 953.54 1306.33 942.928 C 1319.25 889.737 1333.15 836.754 1346.77 783.753 L 1359.69 733.411 C 1361.84 725.053 1364.46 715.777 1365.95 707.32 C 1366.87 702.098 1362.72 697.062 1359.93 692.276 z" fill="url(#brand)" transform="translate(0,0)"></path>
</svg>
